<?xml version="1.0" encoding="utf-8"?>
<!-- Generator: Adobe Illustrator 15.0.2, SVG Export Plug-In . SVG Version: 6.00 Build 0)  -->
<!DOCTYPE svg PUBLIC "-//W3C//DTD SVG 1.1//EN" "http://www.w3.org/Graphics/SVG/1.1/DTD/svg11.dtd">
<svg version="1.1" id="Layer_1" xmlns="http://www.w3.org/2000/svg" xmlns:xlink="http://www.w3.org/1999/xlink" x="0px" y="0px"
	 width="25px" height="25px" viewBox="0 0 25 25" enable-background="new 0 0 25 25" xml:space="preserve">
<g>
	<path fill="#E6E7E8" d="M25,20c0,2.762-2.225,5-4.966,5H4.966C2.221,25,0,22.762,0,20V5c0-2.761,2.221-5,4.966-5h15.068
		C22.775,0,25,2.239,25,5V20z"/>
	<linearGradient id="SVGID_1_" gradientUnits="userSpaceOnUse" x1="12.4985" y1="6.4526" x2="12.4985" y2="18.5474">
		<stop  offset="0" style="stop-color:#EC1C24"/>
		<stop  offset="1" style="stop-color:#B72028"/>
	</linearGradient>
	<polygon fill="url(#SVGID_1_)" points="8.583,6.454 6.493,8.556 10.41,12.5 6.493,16.441 8.583,18.547 12.5,14.604 16.416,18.547 
		18.505,16.443 14.589,12.5 18.505,8.556 16.416,6.453 12.498,10.397 	"/>
</g>
</svg>
