<?xml version="1.0" encoding="utf-8"?>
<!-- Generator: Adobe Illustrator 15.0.2, SVG Export Plug-In . SVG Version: 6.00 Build 0)  -->
<!DOCTYPE svg PUBLIC "-//W3C//DTD SVG 1.1//EN" "http://www.w3.org/Graphics/SVG/1.1/DTD/svg11.dtd">
<svg version="1.1" id="Layer_1" xmlns="http://www.w3.org/2000/svg" xmlns:xlink="http://www.w3.org/1999/xlink" x="0px" y="0px"
	 width="19px" height="16px" viewBox="0 0 19 16" enable-background="new 0 0 19 16" xml:space="preserve">
<path fill="#EE3124" d="M17.608,0H5.47C4.702,0,4.079,0.623,4.079,1.392v2.582H1.391C0.623,3.974,0,4.596,0,5.365v9.243
	C0,15.377,0.623,16,1.391,16h12.138c0.768,0,1.392-0.623,1.392-1.393v-2.581h2.688c0.769,0,1.392-0.622,1.392-1.392V1.392
	C19,0.623,18.377,0,17.608,0z M12.989,14.067H1.932V7.946h2.147v2.688c0,0.77,0.623,1.392,1.391,1.392h7.52V14.067z M17.067,10.094
	H6.011v-6.12h11.057V10.094z"/>
</svg>
