<?xml version="1.0" encoding="utf-8"?>
<!-- Generator: Adobe Illustrator 15.0.2, SVG Export Plug-In . SVG Version: 6.00 Build 0)  -->
<!DOCTYPE svg PUBLIC "-//W3C//DTD SVG 1.1//EN" "http://www.w3.org/Graphics/SVG/1.1/DTD/svg11.dtd">
<svg version="1.1" id="Layer_1" xmlns="http://www.w3.org/2000/svg" xmlns:xlink="http://www.w3.org/1999/xlink" x="0px" y="0px"
	 width="22px" height="22px" viewBox="0 0 22 22" enable-background="new 0 0 22 22" xml:space="preserve">
<g>
	<path fill="#FFFFFF" d="M3.222,3.222c-4.295,4.296-4.296,11.262,0,15.558c4.296,4.295,11.261,4.295,15.557-0.002
		c4.295-4.294,4.295-11.26,0-15.556C14.482-1.075,7.518-1.073,3.222,3.222z M17.208,17.209c-3.429,3.43-8.988,3.43-12.417,0
		c-3.429-3.43-3.429-8.989,0-12.417c3.428-3.429,8.988-3.429,12.417,0C20.638,8.221,20.638,13.779,17.208,17.209z"/>
	<polygon fill="#FFFFFF" points="8.031,6.45 6.449,8.032 9.416,11 6.449,13.968 8.032,15.552 11,12.584 13.969,15.552 
		15.551,13.969 12.584,11.001 15.551,8.032 13.968,6.449 10.999,9.417 	"/>
</g>
</svg>
