<?xml version="1.0" encoding="utf-8"?>
<!-- Generator: Adobe Illustrator 15.0.2, SVG Export Plug-In . SVG Version: 6.00 Build 0)  -->
<!DOCTYPE svg PUBLIC "-//W3C//DTD SVG 1.1//EN" "http://www.w3.org/Graphics/SVG/1.1/DTD/svg11.dtd">
<svg version="1.1" xmlns="http://www.w3.org/2000/svg" xmlns:xlink="http://www.w3.org/1999/xlink" x="0px" y="0px" width="30px"
	 height="30px" viewBox="0 0 30 30" enable-background="new 0 0 30 30" xml:space="preserve">
<g id="bg">
</g>
<g id="linkedin">
	<g>
		<rect fill="#AAAAAA" width="30" height="30"/>
		<g>
			<g>
				<g>
					<path fill="#FFFFFF" d="M10.869,8.505c0,0.894-0.661,1.616-1.745,1.616c-1.021,0-1.68-0.722-1.68-1.616
						c0-0.914,0.679-1.616,1.722-1.616C10.208,6.889,10.847,7.591,10.869,8.505z M7.529,21.798V11.396h3.233v10.401H7.529z"/>
					<path fill="#FFFFFF" d="M12.611,11.396h2.808l0.148,1.448h0.062c0.428-0.682,1.468-1.682,3.213-1.682
						c2.128,0,3.723,1.426,3.723,4.488v6.146h-3.234v-5.764c0-1.341-0.467-2.256-1.636-2.256c-0.896,0-1.427,0.618-1.661,1.213
						c-0.084,0.213-0.105,0.51-0.105,0.809v5.998h-3.232C12.696,21.798,12.655,12.333,12.611,11.396z"/>
				</g>
			</g>
		</g>
	</g>
</g>
</svg>
