<?xml version="1.0" encoding="utf-8"?>
<!-- Generator: Adobe Illustrator 15.0.2, SVG Export Plug-In . SVG Version: 6.00 Build 0)  -->
<!DOCTYPE svg PUBLIC "-//W3C//DTD SVG 1.1//EN" "http://www.w3.org/Graphics/SVG/1.1/DTD/svg11.dtd">
<svg version="1.1" xmlns="http://www.w3.org/2000/svg" xmlns:xlink="http://www.w3.org/1999/xlink" x="0px" y="0px" width="30px"
	 height="30px" viewBox="0 0 30 30" enable-background="new 0 0 30 30" xml:space="preserve">
<g id="bg">
</g>
<g id="pinterest">
	<g>
		<rect fill="#AAAAAA" width="30" height="30"/>
		<g>
			<path fill="#FFFFFF" d="M9.93,25.342c-0.004-0.683-0.004-1.931,0.221-2.886c0.241-1.022,1.616-6.853,1.616-6.853
				s-0.399-0.802-0.399-1.987c0-1.865,1.081-3.255,2.423-3.255c1.145,0,1.697,0.859,1.697,1.886c0,1.15-0.734,2.87-1.111,4.463
				c-0.314,1.332,0.668,2.421,1.986,2.421c2.381,0,3.982-3.06,3.982-6.683c0-2.756-1.853-4.819-5.229-4.819
				c-3.813,0-6.189,2.843-6.189,6.021c0,1.096,0.322,1.866,0.827,2.467c0.232,0.275,0.265,0.387,0.183,0.701
				c-0.061,0.23-0.202,0.787-0.258,1.01c-0.083,0.319-0.342,0.431-0.63,0.313c-1.757-0.718-2.575-2.643-2.575-4.805
				c0-3.57,3.013-7.853,8.985-7.853c4.802,0,7.96,3.473,7.96,7.203c0,4.931-2.742,8.616-6.782,8.616
				c-1.356,0-2.637-0.734-3.073-1.566c0,0-0.729,2.896-0.884,3.456c-0.266,0.97-0.941,2.294-1.264,2.692
				c-0.326,0.398-1.289,1.236-1.289,1.236S9.938,26.024,9.93,25.342z"/>
		</g>
	</g>
</g>
</svg>
