<?xml version="1.0" encoding="utf-8"?>
<!-- Generator: Adobe Illustrator 15.0.2, SVG Export Plug-In . SVG Version: 6.00 Build 0)  -->
<!DOCTYPE svg PUBLIC "-//W3C//DTD SVG 1.1//EN" "http://www.w3.org/Graphics/SVG/1.1/DTD/svg11.dtd">
<svg version="1.1" xmlns="http://www.w3.org/2000/svg" xmlns:xlink="http://www.w3.org/1999/xlink" x="0px" y="0px" width="30px"
	 height="30px" viewBox="0 0 30 30" enable-background="new 0 0 30 30" xml:space="preserve">
<g id="bg">
</g>
<g id="twitter">
	<g>
		<rect fill="#AAAAAA" width="30" height="30"/>
		<path fill="#FFFFFF" d="M22.992,10.89c0.007,0.174,0.012,0.349,0.012,0.523c0,5.348-4.071,11.514-11.513,11.514
			c-2.288,0-4.416-0.67-6.206-1.818c0.317,0.037,0.639,0.059,0.966,0.059c1.896,0,3.642-0.647,5.025-1.734
			c-1.771-0.031-3.265-1.203-3.779-2.811c0.246,0.047,0.499,0.074,0.76,0.074c0.371,0,0.728-0.051,1.066-0.141
			c-1.852-0.375-3.247-2.01-3.247-3.97c0-0.017,0-0.034,0-0.051c0.547,0.304,1.171,0.485,1.834,0.507
			c-1.084-0.727-1.799-1.965-1.799-3.37c0-0.741,0.199-1.437,0.548-2.034c1.997,2.448,4.979,4.059,8.342,4.229
			c-0.068-0.298-0.106-0.607-0.106-0.924c0-2.234,1.813-4.047,4.046-4.047c1.166,0,2.217,0.492,2.955,1.278
			c0.921-0.182,1.788-0.518,2.57-0.981c-0.303,0.944-0.946,1.738-1.779,2.238c0.816-0.097,1.598-0.315,2.324-0.637
			C24.466,9.606,23.782,10.318,22.992,10.89z"/>
	</g>
</g>
</svg>
