<?xml version="1.0" encoding="utf-8"?>
<!-- Generator: Adobe Illustrator 15.0.2, SVG Export Plug-In . SVG Version: 6.00 Build 0)  -->
<!DOCTYPE svg PUBLIC "-//W3C//DTD SVG 1.1//EN" "http://www.w3.org/Graphics/SVG/1.1/DTD/svg11.dtd">
<svg version="1.1" xmlns="http://www.w3.org/2000/svg" xmlns:xlink="http://www.w3.org/1999/xlink" x="0px" y="0px" width="30px"
	 height="30px" viewBox="0 0 30 30" enable-background="new 0 0 30 30" xml:space="preserve">
<g id="bg">
</g>
<g id="vimeo">
	<g>
		<rect fill="#AAAAAA" width="30" height="30"/>
		<path fill-rule="evenodd" clip-rule="evenodd" fill="#FFFFFF" d="M19.354,18.345c-1.021,1.338-2.213,2.65-3.745,3.561
			c-0.565,0.332-1.68,0.754-2.423,0.439c-1.457-0.618-1.972-3.135-2.392-4.816c-0.25-0.996-0.483-1.935-0.787-2.802
			c-0.228-0.648-0.338-1.31-0.694-1.91c-0.582-0.986-1.418-0.039-2.297-0.168c-0.373-0.056-0.439-0.451-0.693-0.691v-0.095
			c1.274-1.017,2.398-2.25,3.873-3.118c0.461-0.27,1.248-0.563,1.889-0.376c0.595,0.174,1.079,0.973,1.29,1.636
			c0.245,0.771,0.378,1.706,0.504,2.454c0.226,1.337,0.148,3.344,1.13,4.393c1.09,1.165,1.92-0.45,2.364-1.274
			c0.382-0.715,0.727-1.459,0.788-2.142c0.139-1.625-0.636-1.845-2.109-1.731c0.835-2.586,3.281-3.669,4.006-3.778
			c1.562-0.238,3.122,0.203,3.178,1.762C23.362,12.937,20.367,17.021,19.354,18.345z"/>
	</g>
</g>
</svg>
